<?xml version="1.0" standalone="no"?>
<!DOCTYPE svg PUBLIC "-//W3C//DTD SVG 20010904//EN"
 "http://www.w3.org/TR/2001/REC-SVG-20010904/DTD/svg10.dtd">
<svg version="1.0" xmlns="http://www.w3.org/2000/svg"
 width="260.000000pt" height="260.000000pt" viewBox="0 0 260.000000 260.000000"
 preserveAspectRatio="xMidYMid meet">
<metadata>
Created by potrace 1.11, written by Peter Selinger 2001-2013
</metadata>
<g transform="translate(0.000000,260.000000) scale(0.100000,-0.100000)"
fill="#000000" stroke="none">
<path d="M1226 2195 c-55 -20 -93 -60 -106 -114 -6 -27 -9 -123 -8 -236 3
-181 4 -192 27 -229 66 -105 274 -103 336 4 18 32 20 54 22 243 1 119 -3 221
-9 238 -29 85 -158 131 -262 94z m102 -316 c2 -168 -1 -219 -11 -227 -7 -6
-19 -7 -26 -3 -10 6 -13 57 -13 219 0 115 3 215 7 221 4 7 14 11 23 9 15 -3
17 -27 20 -219z"/>
<path d="M1975 2196 c-51 -19 -76 -40 -97 -81 -19 -35 -21 -57 -21 -236 0
-220 7 -253 59 -298 64 -57 199 -59 264 -5 58 49 63 70 65 274 2 197 -4 247
-35 290 -40 56 -160 85 -235 56z m96 -103 c1 -5 2 -104 3 -221 2 -216 -2 -242
-34 -222 -12 7 -15 46 -16 212 0 112 3 211 8 221 9 17 37 24 39 10z"/>
<path d="M20 2192 c-6 -2 -10 -119 -10 -323 l0 -319 70 0 70 0 0 137 c0 75 3
133 7 129 4 -3 23 -64 43 -134 l37 -127 76 -3 76 -3 0 323 1 323 -68 0 c-37 0
-69 -3 -72 -7 -3 -3 -5 -63 -4 -132 1 -69 -2 -126 -5 -126 -3 0 -17 37 -30 83
-13 45 -27 87 -30 92 -3 6 -6 12 -6 15 -1 3 -6 21 -13 40 -12 35 -12 35 -72
35 -33 0 -64 -1 -70 -3z"/>
<path d="M459 2190 c-1 -3 -2 -148 -3 -322 -1 -279 0 -318 14 -319 35 -2 143
1 149 5 5 3 7 613 2 636 -1 7 -161 7 -162 0z"/>
<path d="M702 2192 c-9 -3 -12 -89 -12 -323 l0 -319 84 0 84 0 -2 126 c0 69 1
128 3 130 3 2 19 -53 36 -123 l31 -128 88 -3 c87 -3 88 -3 80 20 -4 13 -28 93
-54 179 l-46 155 47 140 c26 76 46 141 44 144 -2 3 -36 5 -77 5 l-73 -1 -36
-117 c-19 -65 -37 -115 -40 -113 -2 2 -3 46 -2 98 3 138 6 133 -75 134 -38 0
-74 -2 -80 -4z"/>
<path d="M1563 1875 l0 -320 51 -5 c28 -3 88 -4 134 -2 l82 3 0 65 0 64 -50 0
-50 0 -2 257 -3 257 -81 1 -81 1 0 -321z"/>
<path d="M2299 2195 c-1 0 -2 -28 -3 -62 l-2 -63 57 0 58 0 -19 -62 c-10 -35
-39 -130 -64 -213 -27 -87 -46 -170 -46 -197 l0 -48 155 0 155 0 -2 63 -3 62
-40 2 c-22 1 -50 2 -61 2 -20 1 -18 10 42 192 54 165 62 199 61 257 l-2 66
-142 1 c-79 0 -144 0 -144 0z"/>
<path d="M1037 1514 c-1 -1 -22 -4 -48 -7 -65 -8 -153 -41 -201 -76 -64 -48
-95 -99 -106 -181 -7 -55 -7 -561 0 -610 26 -169 196 -265 453 -255 232 9 368
98 392 258 12 80 7 590 -6 645 -25 101 -128 184 -266 212 -50 11 -210 21 -218
14z m-123 -298 c13 -4 15 -10 8 -19 -12 -15 -34 -84 -38 -116 -1 -13 1 -34 6
-47 7 -19 5 -26 -12 -38 -19 -14 -23 -14 -33 2 -12 17 -33 111 -34 147 0 11 2
39 5 62 l5 42 37 -13 c20 -8 45 -17 56 -20z m259 8 c52 -25 92 -106 83 -167
-8 -53 -38 -104 -70 -118 -22 -10 -29 -7 -61 24 -42 41 -86 59 -153 61 l-47 1
-3 47 c-4 57 15 97 63 135 56 45 118 50 188 17z m233 -10 c1 -72 -55 -200
-102 -231 -26 -17 -31 -33 -11 -33 15 0 59 -45 76 -78 39 -75 56 -222 26 -222
-30 0 -122 23 -161 41 -54 24 -67 40 -56 70 5 13 8 41 7 62 -1 20 1 37 4 37 4
0 27 -22 51 -48 76 -81 90 -78 17 3 -10 11 -27 32 -37 46 -19 25 -19 26 3 57
12 17 27 32 33 32 15 0 39 97 36 144 -1 22 -14 59 -28 84 -14 24 -24 45 -22
47 4 5 141 23 153 20 6 -1 10 -15 11 -31z m-376 -234 c87 -24 142 -125 116
-210 -13 -41 -57 -91 -92 -106 -133 -56 -271 59 -234 195 14 52 46 90 94 112
47 21 67 23 116 9z"/>
<path d="M1063 1187 c-49 -26 -57 -75 -17 -112 38 -36 103 -16 117 35 12 47
-56 100 -100 77z m55 -39 c28 -28 1 -75 -37 -63 -26 8 -39 54 -20 66 20 12 43
11 57 -3z"/>
<path d="M965 828 c-47 -36 -19 -118 41 -118 36 0 75 37 72 71 -4 57 -67 84
-113 47z m66 -18 c23 -13 24 -28 4 -57 -13 -19 -19 -21 -40 -11 -14 6 -26 16
-26 22 -5 47 22 67 62 46z"/>
<path d="M187 1492 c-16 -3 -17 -38 -18 -410 -1 -224 -1 -411 0 -416 7 -39
-33 -69 -94 -72 l-40 -1 -3 -94 -3 -94 164 2 c174 1 225 10 277 45 71 49 69
37 70 565 l0 473 -65 1 c-36 0 -111 1 -168 2 -57 1 -111 1 -120 -1z"/>
<path d="M1693 1490 c-17 -5 -18 -31 -19 -540 0 -294 3 -537 7 -540 11 -8 585
-4 654 4 165 20 209 86 204 311 -4 171 -31 213 -159 252 l-55 17 38 8 c67 14
117 46 133 84 16 38 20 150 8 200 -24 98 -103 172 -204 188 -100 17 -561 29
-607 16z m456 -205 c12 -12 16 -36 16 -100 0 -98 -9 -112 -73 -119 -34 -3 -42
-1 -43 13 -4 57 -4 199 -1 214 4 14 12 17 45 13 22 -3 47 -12 56 -21z m0 -410
c13 -12 16 -39 16 -130 0 -133 -7 -146 -76 -148 l-43 -2 -1 145 c0 80 0 147 1
150 5 12 88 0 103 -15z"/>
</g>
</svg>
